<?xml version="1.0" encoding="UTF-8"?>
<svg id="Layer_1" xmlns="http://www.w3.org/2000/svg" viewBox="0 0 266.14 38.31">
  <defs>
    <style>
      .cls-1 {
        fill: #fff;
      }
    </style>
  </defs>
  <g>
    <polygon class="cls-1" points="202.42 .43 202.42 37.88 192.06 37.88 192.06 18.47 172.69 37.79 172.63 37.83 165.14 30.33 184.48 10.89 165.16 10.89 165.08 10.82 165.08 .43 202.42 .43"/>
    <g>
      <polygon class="cls-1" points="135.62 10.99 135.62 14.37 155.65 14.37 155.65 23.73 135.95 23.73 135.62 24.06 135.62 27.65 161.53 27.65 161.53 37.88 124.09 37.88 124.09 .43 161.53 .43 161.53 10.66 135.95 10.66 135.62 10.99"/>
      <polygon class="cls-1" points="120.38 .43 120.38 37.88 108.08 37.88 94.22 17.13 93.61 16.76 93.61 37.88 82.72 37.88 82.72 .43 95.35 .43 109.5 21.77 109.5 .43 120.38 .43"/>
      <polygon class="cls-1" points="37.66 .43 37.66 37.88 25.36 37.88 11.5 17.13 10.88 16.76 10.88 37.88 0 37.88 0 .43 12.63 .43 26.77 21.77 26.77 .43 37.66 .43"/>
      <polygon class="cls-1" points="67.07 19.08 79.89 37.88 66.39 37.88 60.09 28.95 53.88 37.88 40.49 37.88 53.34 19.25 40.71 .43 53.88 .43 59.77 8.91 60.41 9.36 66.72 .43 79.89 .43 67.07 19.08"/>
    </g>
  </g>
  <g>
    <path class="cls-1" d="M206.56,26.11h5.94c.43,4.07,3.16,6.8,7.81,6.8s7.71-3,7.71-7.12c0-4.39-3.21-6.85-7.44-6.85-1.82,0-3.42.27-4.98.7v-4.39l9.36-9.42h-17.28V.43h24.67v4.98l-9.74,9.42c7.38,0,11.66,4.5,11.66,11.18,0,7.22-5.78,12.31-13.97,12.31s-13.59-5.3-13.75-12.2Z"/>
    <path class="cls-1" d="M236.45,19.16c0-11.88,5.83-19.16,14.82-19.16s14.88,7.28,14.88,19.16-5.83,19.16-14.88,19.16-14.82-7.33-14.82-19.16ZM259.83,19.16c0-8.88-3.1-13.75-8.56-13.75s-8.51,4.87-8.51,13.75,3.05,13.75,8.51,13.75,8.56-4.87,8.56-13.75Z"/>
  </g>
</svg>