<?xml version="1.0" encoding="UTF-8"?>
<svg id="Layer_1" xmlns="http://www.w3.org/2000/svg" viewBox="0 0 971.53 181.73">
  <defs>
    <style>
      .cls-1 {
        fill: #fff;
      }
    </style>
  </defs>
  <polygon class="cls-1" points="0 182.57 0 .12 59.36 .12 128.13 104.58 128.13 .12 179.84 .12 179.84 182.33 121.06 182.33 51.79 78.42 51.79 182.33 0 182.57"/>
  <polygon class="cls-1" points="193.01 .12 258.54 .12 288.91 44.6 319.84 .12 384.63 .12 321.86 91.15 384.63 181.73 319.28 181.73 288.82 138.29 258.36 181.73 193.01 181.73 255.96 90.93 193.01 .12"/>
  <polygon class="cls-1" points="397.33 181.73 397.33 .12 457.15 .12 526.54 104.79 526.54 .12 578.63 .12 578.63 181.73 519.18 181.73 450.15 78.28 450.15 181.73 397.33 181.73"/>
  <polygon class="cls-1" points="596.67 181.73 596.67 .12 777.98 .12 777.98 50.67 652.44 50.67 652.44 67.98 748.53 67.98 748.53 113.62 652.63 113.62 652.63 131.66 777.98 131.66 777.98 181.73 596.67 181.73"/>
  <polygon class="cls-1" points="790.31 145.41 826.81 181.91 920.98 87.74 920.98 181.91 971.53 181.91 971.53 0 790.31 0 790.31 50.83 884.98 50.83 790.31 145.41"/>
</svg>