<?xml version="1.0" encoding="UTF-8"?>
<svg id="Layer_1" xmlns="http://www.w3.org/2000/svg" viewBox="0 0 880.9 458.5">
  <defs>
    <style>
      .cls-1 {
        isolation: isolate;
      }

      .cls-2 {
        fill: #fff;
      }
    </style>
  </defs>
  <g class="cls-1">
    <path class="cls-2" d="M52.5,22.8h9.1v70h-8.6L17.4,39.1v53.7h-9.1V22.8h8.6l35.6,53.7V22.8Z"/>
    <path class="cls-2" d="M73.6,67.6c0-14.9,11-26.2,24.3-26.2s24.3,11.3,24.3,26.2-11.1,26.3-24.3,26.3-24.3-11.3-24.3-26.3ZM113.5,67.6c0-10.8-7.1-18.1-15.6-18.1s-15.7,7.3-15.7,18.1,7.2,18.2,15.7,18.2,15.6-7.3,15.6-18.2Z"/>
    <path class="cls-2" d="M132.6,92.8v-50.3h6.4l1.9,6.3h.5c1.8-2.7,6.7-7.4,13-7.4,1.5,0,2.8.1,3.9.4v8.7c-1.3-.4-2.5-.5-3.9-.5-7.7,0-13.2,5.4-13.2,14.5v28.3h-8.6Z"/>
    <path class="cls-2" d="M171,77.1v-26.7h-8.6v-7.6h3.8c3.9,0,6.1-2.1,6.1-6v-7.5h7.3v13.2h11.4v7.9h-11.4v26.4c0,6.2,3.2,9,7.9,9,1.3,0,2.4-.2,3.5-.7v7.9c-1.2.4-2.8.9-5.2.9-8.4,0-14.8-6.1-14.8-16.8Z"/>
    <path class="cls-2" d="M201.7,92.8V22.8h8.6v26h.5c1.9-2.9,7.1-7.4,14.5-7.4,11.2,0,19.8,8.7,19.8,22.1v29.3h-8.7v-29c0-8.8-5.4-14.3-12.8-14.3-7.8,0-13.3,5.5-13.3,14.3v29h-8.6Z"/>
    <path class="cls-2" d="M291.7,86.5h-.5l-1.9,6.3h-6.4V22.8h8.6v25.8h.5c1.4-2,7.2-7.2,15.2-7.2,12.6,0,23.2,10.8,23.2,26.2s-10.6,26.3-23.2,26.3c-8.2,0-14-5.4-15.5-7.4ZM321.8,67.6c0-10.8-7-18.1-15.1-18.1s-15.2,7.3-15.2,18.1,7,18.2,15.2,18.2,15.1-7.3,15.1-18.2Z"/>
    <path class="cls-2" d="M372.1,42.5h8.9l-21.6,54.2c-4.6,11.6-9,14.6-14.6,14.6-2,0-3.5-.5-4.7-.9v-7.8c1.1.4,2.1.6,3.3.6,3.4,0,5.9-1.6,7.8-6.5l2-5.1-19.9-49.1h9.3l14.9,38.4,14.6-38.4Z"/>
    <path class="cls-2" d="M456.2,22.8h9.1v70h-8.6l-35.6-53.7v53.7h-9.1V22.8h8.6l35.6,53.7V22.8Z"/>
    <path class="cls-2" d="M477.29,67.6c0-14.9,11-26.2,24.3-26.2s24.3,11.3,24.3,26.2-11.1,26.3-24.3,26.3-24.3-11.3-24.3-26.3ZM517.2,67.6c0-10.8-7.1-18.1-15.6-18.1s-15.7,7.3-15.7,18.1,7.2,18.2,15.7,18.2,15.6-7.3,15.6-18.2Z"/>
    <path class="cls-2" d="M536.29,92.8v-50.3h6.4l1.9,6.3h.5c1.8-2.7,6.7-7.4,13-7.4,1.5,0,2.8.1,3.9.4v8.7c-1.3-.4-2.5-.5-3.9-.5-7.7,0-13.2,5.4-13.2,14.5v28.3h-8.6Z"/>
    <path class="cls-2" d="M574.69,77.1v-26.7h-8.6v-7.6h3.8c3.9,0,6.1-2.1,6.1-6v-7.5h7.3v13.2h11.4v7.9h-11.4v26.4c0,6.2,3.2,9,7.9,9,1.3,0,2.4-.2,3.5-.7v7.9c-1.2.4-2.8.9-5.2.9-8.4,0-14.8-6.1-14.8-16.8Z"/>
    <path class="cls-2" d="M605.39,92.8V22.8h8.6v26h.5c1.9-2.9,7.1-7.4,14.5-7.4,11.2,0,19.8,8.7,19.8,22.1v29.3h-8.7v-29c0-8.8-5.4-14.3-12.8-14.3-7.8,0-13.3,5.5-13.3,14.3v29h-8.6Z"/>
    <path class="cls-2" d="M705.79,71.4h-38.2c1.3,9.1,7.3,14.6,15.6,14.6,6,0,9.9-2.7,12.4-6.7h8.9c-3,7.6-11,14.6-21.4,14.6-13.6,0-24.3-11-24.3-26.3s11-26.2,24.2-26.2,23.2,10.9,23.2,25c0,2.1-.1,3.8-.4,5ZM667.49,64.3h30.3c-1-8.8-6.9-15-14.8-15s-14.2,5.9-15.5,15Z"/>
    <path class="cls-2" d="M753.19,60.9v31.9h-6.5l-1.8-6.3h-.5c-2,2.9-6.9,7.4-15.1,7.4-10.2,0-16.8-6.8-16.8-15.1,0-9.6,9.2-16,22.6-16h9.4v-2.3c0-6.9-4.3-11.2-10.7-11.2s-9.6,3.8-10.4,8.2h-8.7c.9-8.4,8-16.1,19.1-16.1s19.4,8,19.4,19.5ZM744.49,73.5v-3.8h-8.8c-9.5,0-14.6,3.3-14.6,8.7,0,4.6,3.3,7.9,9.6,7.9,8.5,0,13.8-5.7,13.8-12.8Z"/>
    <path class="cls-2" d="M762.99,77.8h8.6c.5,5,4.3,8.5,10.7,8.5s9.4-3.1,9.4-7c0-11.2-27.4-6-27.4-23.5,0-7.9,6.6-14.4,17.3-14.4s17.5,7,18,15.6h-8.5c-.6-5-3.7-8-9.5-8s-8.7,2.9-8.7,6.5c0,10.7,27.4,5.8,27.4,23.5,0,8.4-6.5,14.9-18,14.9s-18.7-7.5-19.3-16.1Z"/>
    <path class="cls-2" d="M813.19,77.1v-26.7h-8.6v-7.6h3.8c3.9,0,6.1-2.1,6.1-6v-7.5h7.3v13.2h11.4v7.9h-11.4v26.4c0,6.2,3.2,9,7.9,9,1.3,0,2.4-.2,3.5-.7v7.9c-1.2.4-2.8.9-5.2.9-8.4,0-14.8-6.1-14.8-16.8Z"/>
  </g>
  <g class="cls-1">
    <path class="cls-2" d="M67.3,142.8h8.3v70h-9v-49l-22,49h-5.4l-21.8-48.6v48.6h-9.1v-70h8.7l25.1,56.3,25.2-56.3Z"/>
    <path class="cls-2" d="M90.2,191.8v-29.3h8.6v29c0,8.8,5.5,14.3,12.9,14.3,7.8,0,13.2-5.5,13.2-14.3v-29h8.7v50.3h-6.5l-1.8-6.3h-.5c-1.9,2.9-7.1,7.4-14.5,7.4-11.6,0-20.1-8.7-20.1-22.1Z"/>
    <path class="cls-2" d="M143.9,197.8h8.6c.5,5,4.3,8.5,10.7,8.5s9.4-3.1,9.4-7c0-11.2-27.4-6-27.4-23.5,0-7.9,6.6-14.4,17.3-14.4s17.5,7,18,15.6h-8.5c-.6-5-3.7-8-9.5-8s-8.7,2.9-8.7,6.5c0,10.7,27.4,5.8,27.4,23.5,0,8.4-6.5,14.9-18,14.9s-18.7-7.5-19.3-16.1Z"/>
    <path class="cls-2" d="M190.7,149.5c0-3.2,2.4-5.4,5.4-5.4s5.5,2.2,5.5,5.4-2.4,5.5-5.5,5.5-5.4-2.4-5.4-5.5ZM191.8,212.8v-50.3h8.6v50.3h-8.6Z"/>
    <path class="cls-2" d="M211,187.6c0-14.9,11-26.2,24.3-26.2,12,0,20.6,9.4,22.5,19.3h-8.6c-1.7-5.9-6.2-11.2-13.9-11.2-8.5,0-15.7,7.3-15.7,18.1s7.2,18.2,15.7,18.2c7.7,0,12.2-5.3,13.9-11.2h8.6c-1.9,9.9-10.5,19.3-22.5,19.3-13.3,0-24.3-11.3-24.3-26.3Z"/>
    <path class="cls-2" d="M335.5,151.5h-34.8v22.7h30.2v8.5h-30.2v30.1h-9.2v-70h44v8.7Z"/>
    <path class="cls-2" d="M386.1,191.4h-38.2c1.3,9.1,7.3,14.6,15.6,14.6,6,0,9.9-2.7,12.4-6.7h8.9c-3,7.6-11,14.6-21.4,14.6-13.6,0-24.3-11-24.3-26.3s11-26.2,24.2-26.2,23.2,10.9,23.2,25c0,2.1-.1,3.8-.4,5ZM347.8,184.3h30.3c-1-8.8-6.9-15-14.8-15s-14.2,5.9-15.5,15Z"/>
    <path class="cls-2" d="M393.69,197.8h8.6c.5,5,4.3,8.5,10.7,8.5s9.4-3.1,9.4-7c0-11.2-27.4-6-27.4-23.5,0-7.9,6.6-14.4,17.3-14.4s17.5,7,18,15.6h-8.5c-.6-5-3.7-8-9.5-8s-8.7,2.9-8.7,6.5c0,10.7,27.4,5.8,27.4,23.5,0,8.4-6.5,14.9-18,14.9s-18.7-7.5-19.3-16.1Z"/>
    <path class="cls-2" d="M443.89,197.1v-26.7h-8.6v-7.6h3.8c3.9,0,6.1-2.1,6.1-6v-7.5h7.3v13.2h11.4v7.9h-11.4v26.4c0,6.2,3.2,9,7.9,9,1.3,0,2.4-.2,3.5-.7v7.9c-1.2.4-2.8.9-5.2.9-8.4,0-14.8-6.1-14.8-16.8Z"/>
    <path class="cls-2" d="M472.99,149.5c0-3.2,2.4-5.4,5.4-5.4s5.5,2.2,5.5,5.4-2.4,5.5-5.5,5.5-5.4-2.4-5.4-5.5ZM474.09,212.8v-50.3h8.6v50.3h-8.6Z"/>
    <path class="cls-2" d="M529.2,162.5h8.9l-19.9,50.3h-8.1l-20-50.3h9.2l15,39.3,14.9-39.3Z"/>
    <path class="cls-2" d="M580.9,180.9v31.9h-6.5l-1.8-6.3h-.5c-2,2.9-6.9,7.4-15.1,7.4-10.2,0-16.8-6.8-16.8-15.1,0-9.6,9.2-16,22.6-16h9.4v-2.3c0-6.9-4.3-11.2-10.7-11.2s-9.6,3.8-10.4,8.2h-8.7c.9-8.4,8-16.1,19.1-16.1s19.4,8,19.4,19.5ZM572.2,193.5v-3.8h-8.8c-9.5,0-14.6,3.3-14.6,8.7,0,4.6,3.3,7.9,9.6,7.9,8.5,0,13.8-5.7,13.8-12.8Z"/>
    <path class="cls-2" d="M594.49,212.8v-70h8.6v70h-8.6Z"/>
  </g>
  <g class="cls-1">
    <path class="cls-2" d="M1.4,313.1h9.1c.1,6.2,5.2,12.1,12.9,12.1s12.7-5.3,12.7-13v-49.4h9.2v49.4c0,12.7-8.6,21.7-21.9,21.7s-22-9.5-22-20.8Z"/>
    <path class="cls-2" d="M58.4,311.8v-29.3h8.6v29c0,8.8,5.5,14.3,12.9,14.3,7.8,0,13.2-5.5,13.2-14.3v-29h8.7v50.3h-6.5l-1.8-6.3h-.5c-1.9,2.9-7.1,7.4-14.5,7.4-11.6,0-20.1-8.7-20.1-22.1Z"/>
    <path class="cls-2" d="M115.4,332.8v-50.3h6.4l1.9,6.3h.5c1.9-2.9,7-7.4,14.4-7.4,11.6,0,20.2,8.7,20.2,22.1v29.3h-8.7v-29c0-8.8-5.4-14.3-12.8-14.3-7.8,0-13.3,5.5-13.3,14.3v29h-8.6Z"/>
    <path class="cls-2" d="M215.8,311.4h-38.2c1.3,9.1,7.3,14.6,15.6,14.6,6,0,9.9-2.7,12.4-6.7h8.9c-3,7.6-11,14.6-21.4,14.6-13.6,0-24.3-11-24.3-26.3s11-26.2,24.2-26.2,23.2,10.9,23.2,25c0,2.1-.1,3.8-.4,5ZM177.5,304.3h30.3c-1-8.8-6.9-15-14.8-15s-14.2,5.9-15.5,15Z"/>
    <path class="cls-2" d="M259.4,262.8h6.8v70h-9.2v-58.4l-10.5,7.5-4.3-6.9,17.2-12.2Z"/>
    <path class="cls-2" d="M293.9,262.8h6.8v70h-9.2v-58.4l-10.5,7.5-4.3-6.9,17.2-12.2Z"/>
    <path class="cls-2" d="M313.09,310v-7.8h45v7.8h-45Z"/>
    <path class="cls-2" d="M377.39,262.8h6.8v70h-9.2v-58.4l-10.5,7.5-4.3-6.9,17.2-12.2Z"/>
    <path class="cls-2" d="M444.5,310.1c0,13.7-10.1,23.8-24.2,23.8s-21.9-9.5-23.2-19.5h9.2c.7,4.9,5.9,11,14,11,8.5,0,15-6.4,15-15.3s-6.5-15.4-15-15.4-12,5.6-13.4,8.7h-8.3l4.5-40.6h36.4v8.5h-28.8l-2.3,20c2.6-2.4,7.3-4.9,13.3-4.9,12.9,0,22.8,9.9,22.8,23.7Z"/>
    <path class="cls-2" d="M464.29,328.7c0,8.5-6.2,15.4-9.2,18.1l-1.9-2.6c1.3-1.7,3.9-5.2,4.5-10.3-3.2-.3-5.5-2.9-5.5-6.1s2.6-6,6-6,6.1,2.6,6.1,6.9Z"/>
    <path class="cls-2" d="M509.19,324.1h31.7v8.7h-44.9v-7.3l25.8-26.3c5.6-5.7,9.9-10.4,9.9-17.2s-5.1-11.8-13.4-11.8-13.8,5.6-14.1,13.1h-9c.3-12,9.7-21.6,23.1-21.6s22.6,8.9,22.6,20.1c0,9-5.8,16-12.6,22.9l-19.1,19.4Z"/>
    <path class="cls-2" d="M549.69,297.8c0-23.9,12.1-36.1,26.1-36.1s26.2,12.2,26.2,36.1-12.1,36.1-26.2,36.1-26.1-12.2-26.1-36.1ZM592.79,297.8c0-19.3-8-27.4-17-27.4s-16.9,8.1-16.9,27.4,8,27.4,16.9,27.4,17-8.1,17-27.4Z"/>
    <path class="cls-2" d="M623.09,324.1h31.7v8.7h-44.9v-7.3l25.8-26.3c5.6-5.7,9.9-10.4,9.9-17.2s-5.1-11.8-13.4-11.8-13.8,5.6-14.1,13.1h-9c.3-12,9.7-21.6,23.1-21.6s22.6,8.9,22.6,20.1c0,9-5.8,16-12.6,22.9l-19.1,19.4Z"/>
    <path class="cls-2" d="M711.39,310.1c0,13.7-10.1,23.8-24.2,23.8s-21.9-9.5-23.2-19.5h9.2c.7,4.9,5.9,11,14,11,8.5,0,15-6.4,15-15.3s-6.5-15.4-15-15.4-12,5.6-13.4,8.7h-8.3l4.5-40.6h36.4v8.5h-28.8l-2.3,20c2.6-2.4,7.3-4.9,13.3-4.9,12.9,0,22.8,9.9,22.8,23.7Z"/>
  </g>
  <g class="cls-1">
    <path class="cls-2" d="M22.8,452.8v-61.3H1.6v-8.7h51.6v8.7h-21.2v61.3h-9.2Z"/>
    <path class="cls-2" d="M50.5,427.6c0-14.9,11-26.2,24.3-26.2s24.3,11.3,24.3,26.2-11.1,26.3-24.3,26.3-24.3-11.3-24.3-26.3ZM90.4,427.6c0-10.8-7.1-18.1-15.6-18.1s-15.7,7.3-15.7,18.1,7.2,18.2,15.7,18.2,15.6-7.3,15.6-18.2Z"/>
    <path class="cls-2" d="M109.5,452.8v-50.3h6.4l1.9,6.3h.5c1.8-2.7,6.7-7.4,13-7.4,1.5,0,2.8.1,3.9.4v8.7c-1.3-.4-2.5-.5-3.9-.5-7.7,0-13.2,5.4-13.2,14.5v28.3h-8.6Z"/>
    <path class="cls-2" d="M137.8,427.6c0-14.9,11-26.2,24.3-26.2s24.3,11.3,24.3,26.2-11.1,26.3-24.3,26.3-24.3-11.3-24.3-26.3ZM177.7,427.6c0-10.8-7.1-18.1-15.6-18.1s-15.7,7.3-15.7,18.1,7.2,18.2,15.7,18.2,15.6-7.3,15.6-18.2Z"/>
    <path class="cls-2" d="M196.8,452.8v-50.3h6.4l1.9,6.3h.5c1.9-2.9,7-7.4,14.4-7.4,11.6,0,20.2,8.7,20.2,22.1v29.3h-8.7v-29c0-8.8-5.4-14.3-12.8-14.3-7.8,0-13.3,5.5-13.3,14.3v29h-8.6Z"/>
    <path class="cls-2" d="M255.6,437.1v-26.7h-8.6v-7.6h3.8c3.9,0,6.1-2.1,6.1-6v-7.5h7.3v13.2h11.4v7.9h-11.4v26.4c0,6.2,3.2,9,7.9,9,1.3,0,2.4-.2,3.5-.7v7.9c-1.2.4-2.8.9-5.2.9-8.4,0-14.8-6.1-14.8-16.8Z"/>
    <path class="cls-2" d="M281.7,427.6c0-14.9,11-26.2,24.3-26.2s24.3,11.3,24.3,26.2-11.1,26.3-24.3,26.3-24.3-11.3-24.3-26.3ZM321.6,427.6c0-10.8-7.1-18.1-15.6-18.1s-15.7,7.3-15.7,18.1,7.2,18.2,15.7,18.2,15.6-7.3,15.6-18.2Z"/>
  </g>
</svg>